# xmcd
#
# Track frame offsets: 
#        150
#        16356
#        32609
#        47798
#        59342
#        79841
#        94046
#        112873
#        129108
#        145460
#
# Disc length: 2144 seconds
#
# Revision: 0
# Processed by: cddbd v1.5.2PL0 Copyright (c) Steve Scherf et al.
# Submitted via: ExactAudioCopyFreeDBPlugin 1.0
#
DISCID=7a085e0a
DTITLE=Glen Campbell - 1976 - Bloodline
DYEAR=1976
DGENRE=
TTITLE0=Baby, Don't Be Givin' Me Up
TTITLE1=See You on Sunday
TTITLE2=Your LoveThen You Can Tell Me Goodbye
TTITLE3=Christiaan No
TTITLE4=Bloodline
TTITLE5=Everytime I Sing a Love Song
TTITLE6=Lay Me Down (Roll Me Out to Sea)
TTITLE7=The Bottom Line
TTITLE8=I Got Love for You Ruby
TTITLE9=San Francisco Is a Lonely Town
EXTD=
EXTT0=
EXTT1=
EXTT2=
EXTT3=
EXTT4=
EXTT5=
EXTT6=
EXTT7=
EXTT8=
EXTT9=
PLAYORDER=
